<svg width="71" height="41" viewBox="0 0 71 41" fill="none" xmlns="http://www.w3.org/2000/svg">
<g id="Brim Icons">
<g id="Group">
<g id="Group_2">
<path id="Vector" d="M35.5719 23.8091C35.4923 28.4401 35.4127 33.0738 35.3332 37.7049C29.0854 42.2046 26.0949 40.9175 25.3506 40.5262C20.6968 38.0704 20.9458 26.7978 21.3 23.8091H35.5693H35.5719Z" fill="#F5F5DC"/>
<path id="Vector_2" d="M49.1584 23.8091C49.5101 26.7978 49.7616 38.0704 45.1079 40.5262C44.3635 40.9175 41.373 42.2046 35.1253 37.7049C35.0457 33.0738 34.9661 28.4401 34.8865 23.8091H49.1558H49.1584Z" fill="#F5F5DC"/>
</g>
<path id="Vector_3" d="M69.8885 15.7261H2.6208C2.00696 15.7261 1.50934 16.2251 1.50934 16.8407V19.6055C1.50934 20.2211 2.00696 20.7201 2.6208 20.7201H69.8885C70.5024 20.7201 71 20.2211 71 19.6055V16.8407C71 16.2251 70.5024 15.7261 69.8885 15.7261Z" fill="#F5F5DC"/>
<path id="Vector_4" d="M36.2547 5.71216H10.17C8.83263 5.71216 7.73657 6.81136 7.73657 8.15254V12.0397C7.73657 12.2301 7.75967 12.4181 7.80074 12.5983C7.89572 12.8634 8.0831 13.3139 8.45017 13.7644C11.9976 18.0969 22.1522 10.0137 35.8927 10.0446C36.0134 10.0446 36.134 10.0498 36.2547 10.0523V5.71473V5.71216Z" fill="#F5F5DC"/>
<path id="Vector_5" d="M35.5719 5.71216H61.6566C62.9939 5.71216 64.09 6.81136 64.09 8.15254V12.0397C64.09 12.2301 64.0669 12.4181 64.0258 12.5983C63.9308 12.8634 63.7434 13.3139 63.3764 13.7644C59.8289 18.0969 49.6744 10.0137 35.9338 10.0446C35.8132 10.0446 35.6925 10.0498 35.5719 10.0523V5.71473V5.71216Z" fill="#F5F5DC"/>
</g>
<path id="Vector_6" d="M7.73659 3.87939C5.80886 4.31443 4.30466 5.82552 3.86829 7.75877C3.43192 5.82552 1.92773 4.31443 0 3.87939C1.92773 3.44177 3.43192 1.93326 3.86829 0C4.3021 1.93326 5.80886 3.44177 7.73659 3.87939Z" fill="#F5F5DC"/>
<path id="Vector_7" d="M60.7273 28.5251C58.7996 28.9602 57.2954 30.4713 56.859 32.4045C56.4252 30.4713 54.9185 28.9628 52.9907 28.5251C54.9185 28.0901 56.4226 26.579 56.859 24.6458C57.2928 26.579 58.7996 28.0875 60.7273 28.5251Z" fill="#F5F5DC"/>
</g>
</svg>
