<svg width="47" height="60" viewBox="0 0 47 60" fill="none" xmlns="http://www.w3.org/2000/svg">
<g id="Cleaning">
<path id="Vector" d="M43.329 9.87692L21.0015 1.99897C19.0473 1.30945 16.9034 2.33247 16.2129 4.28394L1.76111 45.1277C1.07062 47.0792 2.09507 49.2201 4.04929 49.9097L26.3767 57.7876C28.331 58.4771 30.4749 57.4541 31.1654 55.5026L45.6172 14.6589C46.3076 12.7074 45.2832 10.5664 43.329 9.87692Z" fill="#F5F5DC"/>
<path id="Vector_2" d="M10.4258 5.70628C8.07716 6.23406 6.24454 8.06722 5.7129 10.4126C5.18125 8.06722 3.34863 6.23406 1 5.70628C3.34863 5.17538 5.18125 3.34533 5.7129 1C6.24142 3.34533 8.07716 5.17538 10.4258 5.70628Z" fill="#F5F5DC"/>
<path id="Vector_3" d="M47 52.1946C44.6514 52.7223 42.8187 54.5555 42.2871 56.9008C41.7586 54.5555 39.9228 52.7255 37.5742 52.1946C39.9228 51.6668 41.7555 49.8336 42.2871 47.4883C42.8156 49.8336 44.6514 51.6637 47 52.1946Z" fill="#F5F5DC"/>
</g>
</svg>
