<svg width="64" height="41" viewBox="0 0 64 41" fill="none" xmlns="http://www.w3.org/2000/svg">
<g id="Crown Icon">
<g id="Group">
<g id="Group_2">
<path id="Vector" d="M32.3138 19.6382C32.2227 14.3451 32.1341 9.05457 32.043 3.76146C24.9475 -1.37668 21.5521 0.0917351 20.7058 0.540928C15.42 3.34641 15.7038 16.2259 16.1048 19.6382H32.3112H32.3138Z" fill="#F5F5DC"/>
<path id="Vector_2" d="M47.7416 19.6382C48.1426 16.2233 48.4264 3.34647 43.1406 0.54099C42.297 0.0917974 38.8989 -1.37662 31.8035 3.76414C31.7123 9.05726 31.6238 14.3478 31.5327 19.6409H47.739L47.7416 19.6382Z" fill="#F5F5DC"/>
</g>
<g id="Group_3">
<path id="Vector_3" d="M32.3893 29.2787H2.76268C1.24204 29.2787 0 28.023 0 26.4916V22.0522C0 21.8342 0.0260385 21.6188 0.0729078 21.4139C0.179666 21.1091 0.393181 20.5943 0.812401 20.082C4.84056 15.133 16.373 24.3691 31.9779 24.3297C32.1159 24.3297 32.2513 24.3244 32.3893 24.3218V29.2787Z" fill="#F5F5DC"/>
<path id="Vector_4" d="M31.6133 29.2787H61.2373C62.758 29.2787 64 28.023 64 26.4916V22.0522C64 21.8342 63.974 21.6188 63.9271 21.4139C63.8203 21.1091 63.6068 20.5943 63.1876 20.082C59.1594 15.133 47.627 24.3691 32.0221 24.3297C31.8841 24.3297 31.7487 24.3244 31.6107 24.3218V29.2787H31.6133Z" fill="#F5F5DC"/>
</g>
<path id="Vector_5" d="M45.2367 40.9999H17.9874C16.7167 40.9999 15.6752 39.9517 15.6752 38.6672V34.6166C15.6752 33.3347 16.7141 32.2839 17.9874 32.2839C21.8515 32.565 25.9474 32.7436 30.2541 32.7752C35.5712 32.8146 40.5784 32.6228 45.2367 32.2839C45.3929 32.2839 46.2079 32.3023 46.8693 32.9695C47.2885 33.3925 47.5489 33.9756 47.5489 34.6166V38.6672C47.5489 39.9491 46.51 40.9999 45.2367 40.9999Z" fill="#F5F5DC"/>
</g>
<path id="Vector_6" d="M13.4411 12.4904C11.4856 12.9344 9.95973 14.4763 9.51708 16.4491C9.07703 14.4763 7.54857 12.937 5.59308 12.4904C7.54857 12.0465 9.07442 10.5045 9.51708 8.53174C9.95713 10.5045 11.4856 12.0438 13.4411 12.4904Z" fill="#F5F5DC"/>
<path id="Vector_7" d="M57.7273 34.9684C55.7718 35.4124 54.246 36.9543 53.8033 38.9271C53.3633 36.9543 51.8348 35.415 49.8793 34.9684C51.8348 34.5245 53.3607 32.9825 53.8033 31.0098C54.2434 32.9825 55.7718 34.5219 57.7273 34.9684Z" fill="#F5F5DC"/>
</g>
</svg>
