<svg width="68" height="68" viewBox="0 0 68 68" fill="none" xmlns="http://www.w3.org/2000/svg">
<g id="Frame" clip-path="url(#clip0_80_469)">
<path id="Vector" fill-rule="evenodd" clip-rule="evenodd" d="M59.692 0C64.2774 0 68 3.72273 68 8.30795V59.692C68 64.2773 64.2773 68 59.692 68H45.5518V42.3785H54.3971L56.0801 31.4054H45.5518V24.2844C45.5518 21.2824 47.0224 18.3561 51.7382 18.3561H56.525V9.01412C56.525 9.01412 52.1807 8.27276 48.0274 8.27276C39.3563 8.27276 33.689 13.528 33.689 23.042V31.4054H24.0504V42.3785H33.689V68H8.30795C3.72273 68 0 64.2773 0 59.692V8.30795C0 3.72273 3.7226 0 8.30795 0L59.692 0Z" fill="#F5F5DC"/>
</g>
<defs>
<clipPath id="clip0_80_469">
<rect width="68" height="68" fill="white"/>
</clipPath>
</defs>
</svg>
