<svg width="30" height="40" viewBox="0 0 30 40" fill="none" xmlns="http://www.w3.org/2000/svg">
<path id="Vector" d="M15 0C6.71691 0 0 6.71649 0 14.9991C0 21.0455 2.10823 22.7342 13.4611 39.1931C14.2046 40.269 15.7981 40.269 16.5417 39.1931C27.8891 22.7342 30 21.0455 30 14.9991C30 6.71649 23.2804 0 15 0ZM15 21.179C11.5517 21.179 8.74887 18.3764 8.74887 14.9283C8.74887 11.4801 11.5544 8.67751 15 8.67751C18.4456 8.67751 21.2511 11.4801 21.2511 14.9283C21.2511 18.3764 18.4456 21.179 15 21.179Z" fill="#F5F5DC"/>
</svg>
