<svg width="29" height="29" viewBox="0 0 29 29" fill="none" xmlns="http://www.w3.org/2000/svg">
<path id="Vector" d="M28.9597 21.9181L27.6418 27.6275C27.456 28.4341 26.7463 29 25.9163 29C11.6244 28.9979 0 17.3764 0 3.08599C0 2.25618 0.563903 1.54462 1.3728 1.36092L7.08152 0.0454813C7.91365 -0.146662 8.76267 0.284077 9.10904 1.07165L11.7448 7.21602C12.0532 7.94025 11.8441 8.78272 11.2358 9.28103L8.1861 11.7303C10.1101 15.6513 13.2992 18.8375 17.2212 20.7632L19.7176 17.7163C20.2097 17.1061 21.0587 16.895 21.7831 17.2075L27.929 19.8426C28.6682 20.2311 29.1498 21.0926 28.9576 21.9181H28.9597Z" fill="#F5F5DC"/>
</svg>
