<svg width="71" height="35" viewBox="0 0 71 35" fill="none" xmlns="http://www.w3.org/2000/svg">
<g id="Sweatband">
<g id="Group">
<path id="Vector" d="M8.42395 24.116V25.0462C8.42395 26.5713 9.65093 27.8088 11.163 27.8088H58.7497C60.2618 27.8088 61.4888 26.5713 61.4888 25.0462V24.116H8.42395Z" fill="#F5F5DC"/>
<path id="Vector_2" d="M61.4888 22.6276V8.98107C61.4888 7.45602 60.2618 6.21851 58.7497 6.21851H11.163C9.65093 6.21851 8.42395 7.45602 8.42395 8.98107V22.6276H61.4888Z" fill="#F5F5DC"/>
</g>
<path id="Vector_3" d="M8.42397 4.24815C6.32496 4.72455 4.68712 6.37927 4.21198 8.49629C3.73684 6.37927 2.099 4.72455 0 4.24815C2.099 3.76893 3.73684 2.11703 4.21198 0C4.68433 2.11703 6.32496 3.76893 8.42397 4.24815Z" fill="#F5F5DC"/>
<path id="Vector_4" d="M71 30.7518C68.901 31.2282 67.2632 32.8829 66.788 35C66.3157 32.8829 64.6751 31.231 62.576 30.7518C64.6751 30.2754 66.3129 28.6207 66.788 26.5037C67.2604 28.6207 68.901 30.2726 71 30.7518Z" fill="#F5F5DC"/>
</g>
</svg>
